<svg width="24" height="24" viewBox="0 0 24 24" fill="none" xmlns="http://www.w3.org/2000/svg">
<path d="M7.56328 11.3437C7.6308 11.272 7.71179 11.2143 7.80162 11.1739C7.89146 11.1335 7.98837 11.1111 8.08683 11.1082C8.1853 11.1052 8.28338 11.1217 8.37548 11.1566C8.46757 11.1916 8.55188 11.2443 8.62359 11.3119C12.075 14.5631 15.5381 16.5413 19.6134 17.5495C20.1633 16.0495 20.212 14.3986 19.7372 12.788C19.1072 10.6509 17.64 8.78906 15.4955 7.40391C13.5811 6.16734 11.6677 5.84531 9.81656 5.53406C7.48125 5.14125 5.27531 4.77 3.17016 2.54109C2.93578 2.29453 2.61656 2.19562 2.31141 2.27578C1.96266 2.36953 1.72875 2.64516 1.61672 3.10078C1.35422 4.16719 1.52297 7.15594 2.26125 10.3111C3.44672 15.3802 5.33859 17.9452 6.71719 19.2047C8.49844 20.8308 10.8244 21.7313 13.1358 21.7313C13.5715 21.7319 14.0066 21.7 14.4375 21.6356C16.3927 21.3394 18.0202 20.3573 18.9375 18.9286C14.7427 17.8373 11.1591 15.7622 7.59375 12.4055C7.52191 12.3378 7.46413 12.2567 7.4237 12.1667C7.38328 12.0767 7.36102 11.9796 7.35819 11.8809C7.35536 11.7823 7.37201 11.6841 7.40721 11.5919C7.4424 11.4997 7.49544 11.4154 7.56328 11.3437ZM21.9108 18.0089C21.1219 17.8875 20.3578 17.7352 19.6139 17.5509C19.461 17.9685 19.2707 18.3714 19.0453 18.7547C19.0111 18.8133 18.975 18.8714 18.938 18.9286C19.8428 19.1628 20.759 19.3506 21.683 19.4911C21.7813 19.5084 21.8821 19.5059 21.9794 19.4837C22.0767 19.4615 22.1687 19.4201 22.2498 19.362C22.3309 19.3038 22.3996 19.23 22.4519 19.1449C22.5041 19.0599 22.5389 18.9652 22.5541 18.8666C22.5693 18.7679 22.5646 18.6672 22.5404 18.5704C22.5161 18.4735 22.4728 18.3825 22.4129 18.3026C22.3531 18.2227 22.2779 18.1556 22.1917 18.1052C22.1056 18.0547 22.0102 18.022 21.9112 18.0089H21.9108Z" fill="#067A57"/>
</svg>
