<svg width="22" height="20" viewBox="0 0 22 20" fill="none" xmlns="http://www.w3.org/2000/svg">
<path d="M6.56325 9.34378C6.63077 9.27205 6.71176 9.21433 6.80159 9.17391C6.89143 9.13349 6.98834 9.11116 7.0868 9.1082C7.18527 9.10524 7.28335 9.12171 7.37544 9.15666C7.46754 9.19161 7.55185 9.24436 7.62356 9.3119C11.075 12.5632 14.5381 14.5413 18.6134 15.5496C19.1632 14.0496 19.212 12.3986 18.7372 10.788C18.1072 8.65097 16.64 6.78909 14.4954 5.40393C12.5811 4.16737 10.6676 3.84534 8.81653 3.53409C6.48122 3.14128 4.27528 2.77003 2.17012 0.541122C1.93575 0.294559 1.61653 0.195653 1.31137 0.275809C0.962625 0.369559 0.728718 0.645184 0.616687 1.10081C0.354187 2.16722 0.522937 5.15597 1.26122 8.31112C2.44669 13.3802 4.33856 15.9452 5.71716 17.2047C7.49841 18.8308 9.82434 19.7313 12.1357 19.7313C12.5714 19.732 13.0066 19.7 13.4375 19.6357C15.3926 19.3394 17.0201 18.3574 17.9375 16.9286C13.7426 15.8374 10.159 13.7622 6.59372 10.4055C6.52188 10.3379 6.46409 10.2567 6.42367 10.1667C6.38325 10.0767 6.36099 9.97959 6.35816 9.88096C6.35533 9.78233 6.37198 9.68411 6.40718 9.59193C6.44237 9.49975 6.49541 9.41542 6.56325 9.34378ZM20.9107 16.0089C20.1218 15.8875 19.3578 15.7352 18.6139 15.551C18.4609 15.9685 18.2706 16.3714 18.0453 16.7547C18.0111 16.8133 17.975 16.8714 17.9379 16.9286C18.8427 17.1628 19.7589 17.3506 20.6829 17.4911C20.7813 17.5084 20.882 17.5059 20.9794 17.4837C21.0767 17.4615 21.1686 17.4201 21.2498 17.362C21.3309 17.3038 21.3996 17.23 21.4518 17.145C21.5041 17.0599 21.5388 16.9653 21.554 16.8666C21.5692 16.7679 21.5646 16.6672 21.5403 16.5704C21.5161 16.4736 21.4728 16.3825 21.4129 16.3026C21.353 16.2228 21.2778 16.1556 21.1917 16.1052C21.1055 16.0548 21.0102 16.022 20.9112 16.0089H20.9107Z" fill="#067A57"/>
</svg>
