<svg width="136" height="24" viewBox="0 0 136 24" fill="none" xmlns="http://www.w3.org/2000/svg">
<path d="M7.56328 11.3438C7.6308 11.2721 7.71179 11.2143 7.80162 11.1739C7.89146 11.1335 7.98837 11.1112 8.08683 11.1082C8.1853 11.1052 8.28338 11.1217 8.37548 11.1567C8.46757 11.1916 8.55188 11.2444 8.62359 11.3119C12.075 14.5632 15.5381 16.5413 19.6134 17.5496C20.1633 16.0496 20.212 14.3986 19.7372 12.788C19.1072 10.651 17.64 8.78909 15.4955 7.40393C13.5811 6.16737 11.6677 5.84534 9.81656 5.53409C7.48125 5.14128 5.27531 4.77003 3.17016 2.54112C2.93578 2.29456 2.61656 2.19565 2.31141 2.27581C1.96266 2.36956 1.72875 2.64518 1.61672 3.10081C1.35422 4.16722 1.52297 7.15597 2.26125 10.3111C3.44672 15.3802 5.33859 17.9452 6.71719 19.2047C8.49844 20.8308 10.8244 21.7313 13.1358 21.7313C13.5715 21.732 14.0066 21.7 14.4375 21.6357C16.3927 21.3394 18.0202 20.3574 18.9375 18.9286C14.7427 17.8374 11.1591 15.7622 7.59375 12.4055C7.52191 12.3379 7.46413 12.2567 7.4237 12.1667C7.38328 12.0767 7.36102 11.9796 7.35819 11.881C7.35536 11.7823 7.37201 11.6841 7.40721 11.5919C7.4424 11.4998 7.49544 11.4154 7.56328 11.3438ZM21.9108 18.0089C21.1219 17.8875 20.3578 17.7352 19.6139 17.551C19.461 17.9685 19.2707 18.3714 19.0453 18.7547C19.0111 18.8133 18.975 18.8714 18.938 18.9286C19.8428 19.1628 20.759 19.3506 21.683 19.4911C21.7813 19.5084 21.8821 19.5059 21.9794 19.4837C22.0767 19.4615 22.1687 19.4201 22.2498 19.362C22.3309 19.3038 22.3996 19.23 22.4519 19.145C22.5041 19.0599 22.5389 18.9653 22.5541 18.8666C22.5693 18.7679 22.5646 18.6672 22.5404 18.5704C22.5161 18.4736 22.4728 18.3825 22.4129 18.3026C22.3531 18.2228 22.2779 18.1556 22.1917 18.1052C22.1056 18.0548 22.0102 18.022 21.9112 18.0089H21.9108Z" fill="#067A57"/>
<path d="M39.4716 9.5625C39.4186 9.06629 39.1951 8.67992 38.8011 8.40341C38.411 8.12689 37.9034 7.98864 37.2784 7.98864C36.839 7.98864 36.4621 8.05492 36.1477 8.1875C35.8333 8.32008 35.5928 8.5 35.4261 8.72727C35.2595 8.95455 35.1742 9.21402 35.1705 9.50568C35.1705 9.74811 35.2254 9.95833 35.3352 10.1364C35.4489 10.3144 35.6023 10.4659 35.7955 10.5909C35.9886 10.7121 36.2027 10.8144 36.4375 10.8977C36.6723 10.9811 36.9091 11.0511 37.1477 11.108L38.2386 11.3807C38.678 11.483 39.1004 11.6212 39.5057 11.7955C39.9148 11.9697 40.2803 12.1894 40.6023 12.4545C40.928 12.7197 41.1856 13.0398 41.375 13.4148C41.5644 13.7898 41.6591 14.2292 41.6591 14.733C41.6591 15.4148 41.4848 16.0152 41.1364 16.5341C40.7879 17.0492 40.2841 17.4527 39.625 17.7443C38.9697 18.0322 38.1761 18.1761 37.2443 18.1761C36.339 18.1761 35.553 18.036 34.8864 17.7557C34.2235 17.4754 33.7045 17.0663 33.3295 16.5284C32.9583 15.9905 32.7576 15.3352 32.7273 14.5625H34.8011C34.8314 14.9678 34.9564 15.3049 35.1761 15.5739C35.3958 15.8428 35.6818 16.0436 36.0341 16.1761C36.3902 16.3087 36.7879 16.375 37.2273 16.375C37.6856 16.375 38.0871 16.3068 38.4318 16.1705C38.7803 16.0303 39.053 15.8371 39.25 15.5909C39.447 15.3409 39.5473 15.0492 39.5511 14.7159C39.5473 14.4129 39.4583 14.1629 39.2841 13.9659C39.1098 13.7652 38.8655 13.5985 38.5511 13.4659C38.2405 13.3295 37.8769 13.2083 37.4602 13.1023L36.1364 12.7614C35.178 12.5152 34.4205 12.142 33.8636 11.642C33.3106 11.1383 33.0341 10.4697 33.0341 9.63636C33.0341 8.95076 33.2197 8.35038 33.5909 7.83523C33.9659 7.32008 34.4754 6.92045 35.1193 6.63636C35.7633 6.34848 36.4924 6.20455 37.3068 6.20455C38.1326 6.20455 38.8561 6.34848 39.4773 6.63636C40.1023 6.92045 40.5928 7.31629 40.9489 7.82386C41.3049 8.32765 41.4886 8.9072 41.5 9.5625H39.4716ZM43.4474 18V9.27273H45.4134V10.7557H45.5156C45.6974 10.2557 45.9986 9.86553 46.419 9.58523C46.8395 9.30114 47.3414 9.15909 47.9247 9.15909C48.5156 9.15909 49.0137 9.30303 49.419 9.59091C49.8281 9.875 50.116 10.2633 50.2827 10.7557H50.3736C50.5668 10.2708 50.8925 9.88447 51.3509 9.59659C51.813 9.30492 52.3603 9.15909 52.9929 9.15909C53.7959 9.15909 54.4512 9.41288 54.9588 9.92045C55.4664 10.428 55.7202 11.1686 55.7202 12.142V18H53.6577V12.4602C53.6577 11.9186 53.5137 11.5227 53.2259 11.2727C52.938 11.0189 52.5857 10.892 52.169 10.892C51.6728 10.892 51.2846 11.0473 51.0043 11.358C50.7277 11.6648 50.5895 12.0644 50.5895 12.5568V18H48.5724V12.375C48.5724 11.9242 48.4361 11.5644 48.1634 11.2955C47.8944 11.0265 47.5421 10.892 47.1065 10.892C46.8111 10.892 46.5421 10.9678 46.2997 11.1193C46.0573 11.267 45.8641 11.4773 45.7202 11.75C45.5762 12.0189 45.5043 12.3333 45.5043 12.6932V18H43.4474ZM60.3182 18.1761C59.7652 18.1761 59.267 18.0777 58.8239 17.8807C58.3845 17.6799 58.036 17.3845 57.7784 16.9943C57.5246 16.6042 57.3977 16.1231 57.3977 15.5511C57.3977 15.0587 57.4886 14.6515 57.6705 14.3295C57.8523 14.0076 58.1004 13.75 58.4148 13.5568C58.7292 13.3636 59.0833 13.2178 59.4773 13.1193C59.875 13.017 60.286 12.9432 60.7102 12.8977C61.2216 12.8447 61.6364 12.7973 61.9545 12.7557C62.2727 12.7102 62.5038 12.642 62.6477 12.5511C62.7955 12.4564 62.8693 12.3106 62.8693 12.1136V12.0795C62.8693 11.6515 62.7424 11.3201 62.4886 11.0852C62.2348 10.8504 61.8693 10.733 61.392 10.733C60.8883 10.733 60.4886 10.8428 60.1932 11.0625C59.9015 11.2822 59.7045 11.5417 59.6023 11.8409L57.6818 11.5682C57.8333 11.0379 58.0833 10.5947 58.4318 10.2386C58.7803 9.87879 59.2064 9.60985 59.7102 9.43182C60.214 9.25 60.7708 9.15909 61.3807 9.15909C61.8011 9.15909 62.2197 9.20833 62.6364 9.30682C63.053 9.4053 63.4337 9.56818 63.7784 9.79545C64.1231 10.0189 64.3996 10.3239 64.608 10.7102C64.8201 11.0966 64.9261 11.5795 64.9261 12.1591V18H62.9489V16.8011H62.8807C62.7557 17.0436 62.5795 17.2708 62.3523 17.483C62.1288 17.6913 61.8466 17.8598 61.5057 17.9886C61.1686 18.1136 60.7727 18.1761 60.3182 18.1761ZM60.8523 16.6648C61.2652 16.6648 61.6231 16.5833 61.9261 16.4205C62.2292 16.2538 62.4621 16.0341 62.625 15.7614C62.7917 15.4886 62.875 15.1913 62.875 14.8693V13.8409C62.8106 13.8939 62.7008 13.9432 62.5455 13.9886C62.3939 14.0341 62.2235 14.0739 62.0341 14.108C61.8447 14.142 61.6572 14.1723 61.4716 14.1989C61.286 14.2254 61.125 14.2481 60.9886 14.267C60.6818 14.3087 60.4072 14.3769 60.1648 14.4716C59.9223 14.5663 59.7311 14.6989 59.5909 14.8693C59.4508 15.036 59.3807 15.2519 59.3807 15.517C59.3807 15.8958 59.5189 16.1818 59.7955 16.375C60.072 16.5682 60.4242 16.6648 60.8523 16.6648ZM66.9943 18V9.27273H68.9886V10.7273H69.0795C69.2386 10.2235 69.5114 9.83523 69.8977 9.5625C70.2879 9.28598 70.733 9.14773 71.233 9.14773C71.3466 9.14773 71.4735 9.15341 71.6136 9.16477C71.7576 9.17235 71.8769 9.18561 71.9716 9.20455V11.0966C71.8845 11.0663 71.7462 11.0398 71.5568 11.017C71.3712 10.9905 71.1913 10.9773 71.017 10.9773C70.642 10.9773 70.3049 11.0587 70.0057 11.2216C69.7102 11.3807 69.4773 11.6023 69.3068 11.8864C69.1364 12.1705 69.0511 12.4981 69.0511 12.8693V18H66.9943ZM78.1648 9.27273V10.8636H73.1477V9.27273H78.1648ZM74.3864 7.18182H76.4432V15.375C76.4432 15.6515 76.4848 15.8636 76.5682 16.0114C76.6553 16.1553 76.7689 16.2538 76.9091 16.3068C77.0492 16.3598 77.2045 16.3864 77.375 16.3864C77.5038 16.3864 77.6212 16.3769 77.7273 16.358C77.8371 16.339 77.9205 16.322 77.9773 16.3068L78.3239 17.9148C78.214 17.9527 78.0568 17.9943 77.8523 18.0398C77.6515 18.0852 77.4053 18.1117 77.1136 18.1193C76.5985 18.1345 76.1345 18.0568 75.7216 17.8864C75.3087 17.7121 74.9811 17.4432 74.7386 17.0795C74.5 16.7159 74.3826 16.2614 74.3864 15.7159V7.18182ZM86.2997 9.5625C86.2467 9.06629 86.0232 8.67992 85.6293 8.40341C85.2391 8.12689 84.7315 7.98864 84.1065 7.98864C83.6671 7.98864 83.2902 8.05492 82.9759 8.1875C82.6615 8.32008 82.4209 8.5 82.2543 8.72727C82.0876 8.95455 82.0024 9.21402 81.9986 9.50568C81.9986 9.74811 82.0535 9.95833 82.1634 10.1364C82.277 10.3144 82.4304 10.4659 82.6236 10.5909C82.8168 10.7121 83.0308 10.8144 83.2656 10.8977C83.5005 10.9811 83.7372 11.0511 83.9759 11.108L85.0668 11.3807C85.5062 11.483 85.9285 11.6212 86.3338 11.7955C86.7429 11.9697 87.1084 12.1894 87.4304 12.4545C87.7562 12.7197 88.0137 13.0398 88.2031 13.4148C88.3925 13.7898 88.4872 14.2292 88.4872 14.733C88.4872 15.4148 88.313 16.0152 87.9645 16.5341C87.616 17.0492 87.1122 17.4527 86.4531 17.7443C85.7978 18.0322 85.0043 18.1761 84.0724 18.1761C83.1671 18.1761 82.3812 18.036 81.7145 17.7557C81.0516 17.4754 80.5327 17.0663 80.1577 16.5284C79.7865 15.9905 79.5857 15.3352 79.5554 14.5625H81.6293C81.6596 14.9678 81.7846 15.3049 82.0043 15.5739C82.224 15.8428 82.5099 16.0436 82.8622 16.1761C83.2183 16.3087 83.616 16.375 84.0554 16.375C84.5137 16.375 84.9152 16.3068 85.2599 16.1705C85.6084 16.0303 85.8812 15.8371 86.0781 15.5909C86.2751 15.3409 86.3755 15.0492 86.3793 14.7159C86.3755 14.4129 86.2865 14.1629 86.1122 13.9659C85.938 13.7652 85.6937 13.5985 85.3793 13.4659C85.0687 13.3295 84.705 13.2083 84.2884 13.1023L82.9645 12.7614C82.0062 12.5152 81.2486 12.142 80.6918 11.642C80.1387 11.1383 79.8622 10.4697 79.8622 9.63636C79.8622 8.95076 80.0478 8.35038 80.419 7.83523C80.794 7.32008 81.3035 6.92045 81.9474 6.63636C82.5914 6.34848 83.3205 6.20455 84.1349 6.20455C84.9607 6.20455 85.6842 6.34848 86.3054 6.63636C86.9304 6.92045 87.4209 7.31629 87.777 7.82386C88.133 8.32765 88.3168 8.9072 88.3281 9.5625H86.2997ZM94.0824 18.1705C93.2112 18.1705 92.4631 17.9792 91.8381 17.5966C91.2169 17.214 90.7377 16.6856 90.4006 16.0114C90.0672 15.3333 89.9006 14.553 89.9006 13.6705C89.9006 12.7841 90.071 12.0019 90.4119 11.3239C90.7528 10.642 91.2339 10.1117 91.8551 9.73295C92.4801 9.35038 93.2188 9.15909 94.071 9.15909C94.7794 9.15909 95.4063 9.28977 95.9517 9.55114C96.5009 9.80871 96.9384 10.1742 97.2642 10.6477C97.59 11.1174 97.7756 11.6667 97.821 12.2955H95.8551C95.7756 11.875 95.5862 11.5246 95.2869 11.2443C94.9915 10.9602 94.5956 10.8182 94.0994 10.8182C93.679 10.8182 93.3097 10.9318 92.9915 11.1591C92.6733 11.3826 92.4252 11.7045 92.2472 12.125C92.0729 12.5455 91.9858 13.0492 91.9858 13.6364C91.9858 14.2311 92.0729 14.7424 92.2472 15.1705C92.4214 15.5947 92.6657 15.9223 92.9801 16.1534C93.2983 16.3807 93.6714 16.4943 94.0994 16.4943C94.4025 16.4943 94.6733 16.4375 94.9119 16.3239C95.1544 16.2064 95.357 16.0379 95.5199 15.8182C95.6828 15.5985 95.7945 15.3314 95.8551 15.017H97.821C97.7718 15.6345 97.59 16.1818 97.2756 16.6591C96.9612 17.1326 96.5331 17.5038 95.9915 17.7727C95.4498 18.0379 94.8134 18.1705 94.0824 18.1705ZM102.021 18.1761C101.468 18.1761 100.97 18.0777 100.527 17.8807C100.088 17.6799 99.7391 17.3845 99.4815 16.9943C99.2277 16.6042 99.1009 16.1231 99.1009 15.5511C99.1009 15.0587 99.1918 14.6515 99.3736 14.3295C99.5554 14.0076 99.8035 13.75 100.118 13.5568C100.432 13.3636 100.786 13.2178 101.18 13.1193C101.578 13.017 101.989 12.9432 102.413 12.8977C102.925 12.8447 103.339 12.7973 103.658 12.7557C103.976 12.7102 104.207 12.642 104.351 12.5511C104.499 12.4564 104.572 12.3106 104.572 12.1136V12.0795C104.572 11.6515 104.446 11.3201 104.192 11.0852C103.938 10.8504 103.572 10.733 103.095 10.733C102.591 10.733 102.192 10.8428 101.896 11.0625C101.605 11.2822 101.408 11.5417 101.305 11.8409L99.3849 11.5682C99.5365 11.0379 99.7865 10.5947 100.135 10.2386C100.483 9.87879 100.91 9.60985 101.413 9.43182C101.917 9.25 102.474 9.15909 103.084 9.15909C103.504 9.15909 103.923 9.20833 104.339 9.30682C104.756 9.4053 105.137 9.56818 105.482 9.79545C105.826 10.0189 106.103 10.3239 106.311 10.7102C106.523 11.0966 106.629 11.5795 106.629 12.1591V18H104.652V16.8011H104.584C104.459 17.0436 104.283 17.2708 104.055 17.483C103.832 17.6913 103.55 17.8598 103.209 17.9886C102.872 18.1136 102.476 18.1761 102.021 18.1761ZM102.555 16.6648C102.968 16.6648 103.326 16.5833 103.629 16.4205C103.932 16.2538 104.165 16.0341 104.328 15.7614C104.495 15.4886 104.578 15.1913 104.578 14.8693V13.8409C104.514 13.8939 104.404 13.9432 104.249 13.9886C104.097 14.0341 103.927 14.0739 103.737 14.108C103.548 14.142 103.36 14.1723 103.175 14.1989C102.989 14.2254 102.828 14.2481 102.692 14.267C102.385 14.3087 102.11 14.3769 101.868 14.4716C101.625 14.5663 101.434 14.6989 101.294 14.8693C101.154 15.036 101.084 15.2519 101.084 15.517C101.084 15.8958 101.222 16.1818 101.499 16.375C101.775 16.5682 102.127 16.6648 102.555 16.6648ZM108.697 21.2727V9.27273H110.72V10.7159H110.839C110.946 10.5038 111.095 10.2784 111.288 10.0398C111.482 9.79735 111.743 9.59091 112.072 9.42045C112.402 9.24621 112.822 9.15909 113.334 9.15909C114.008 9.15909 114.616 9.33144 115.158 9.67614C115.703 10.017 116.135 10.5227 116.453 11.1932C116.775 11.8598 116.936 12.678 116.936 13.6477C116.936 14.6061 116.779 15.4205 116.464 16.0909C116.15 16.7614 115.722 17.2727 115.18 17.625C114.639 17.9773 114.025 18.1534 113.339 18.1534C112.839 18.1534 112.425 18.0701 112.095 17.9034C111.766 17.7367 111.5 17.536 111.3 17.3011C111.103 17.0625 110.949 16.8371 110.839 16.625H110.754V21.2727H108.697ZM110.714 13.6364C110.714 14.2008 110.794 14.6951 110.953 15.1193C111.116 15.5436 111.349 15.875 111.652 16.1136C111.959 16.3485 112.33 16.4659 112.766 16.4659C113.22 16.4659 113.601 16.3447 113.908 16.1023C114.214 15.8561 114.446 15.5208 114.601 15.0966C114.76 14.6686 114.839 14.1818 114.839 13.6364C114.839 13.0947 114.762 12.6136 114.607 12.1932C114.451 11.7727 114.22 11.4432 113.913 11.2045C113.607 10.9659 113.224 10.8466 112.766 10.8466C112.326 10.8466 111.953 10.9621 111.646 11.1932C111.339 11.4242 111.107 11.7481 110.947 12.1648C110.792 12.5814 110.714 13.072 110.714 13.6364ZM122.561 18.1705C121.686 18.1705 120.93 17.9886 120.294 17.625C119.661 17.2576 119.175 16.7386 118.834 16.0682C118.493 15.3939 118.322 14.6004 118.322 13.6875C118.322 12.7898 118.493 12.0019 118.834 11.3239C119.179 10.642 119.66 10.1117 120.277 9.73295C120.894 9.35038 121.62 9.15909 122.453 9.15909C122.991 9.15909 123.499 9.24621 123.976 9.42045C124.457 9.59091 124.881 9.85606 125.249 10.2159C125.62 10.5758 125.911 11.0341 126.124 11.5909C126.336 12.1439 126.442 12.803 126.442 13.5682V14.1989H119.288V12.8125H124.47C124.466 12.4186 124.381 12.0682 124.214 11.7614C124.048 11.4508 123.815 11.2064 123.516 11.0284C123.22 10.8504 122.875 10.7614 122.482 10.7614C122.061 10.7614 121.692 10.8636 121.374 11.0682C121.055 11.2689 120.807 11.5341 120.629 11.8636C120.455 12.1894 120.366 12.5473 120.362 12.9375V14.1477C120.362 14.6553 120.455 15.0909 120.641 15.4545C120.826 15.8144 121.086 16.0909 121.419 16.2841C121.752 16.4735 122.143 16.5682 122.589 16.5682C122.889 16.5682 123.16 16.5265 123.402 16.4432C123.644 16.3561 123.855 16.2292 124.033 16.0625C124.211 15.8958 124.345 15.6894 124.436 15.4432L126.357 15.6591C126.235 16.1667 126.004 16.6098 125.663 16.9886C125.326 17.3636 124.894 17.6553 124.368 17.8636C123.841 18.0682 123.239 18.1705 122.561 18.1705ZM135.08 11.5795L133.205 11.7841C133.152 11.5947 133.059 11.4167 132.926 11.25C132.797 11.0833 132.623 10.9489 132.403 10.8466C132.184 10.7443 131.915 10.6932 131.597 10.6932C131.169 10.6932 130.809 10.786 130.517 10.9716C130.229 11.1572 130.087 11.3977 130.091 11.6932C130.087 11.947 130.18 12.1534 130.369 12.3125C130.563 12.4716 130.881 12.6023 131.324 12.7045L132.812 13.0227C133.638 13.2008 134.252 13.483 134.653 13.8693C135.059 14.2557 135.263 14.7614 135.267 15.3864C135.263 15.9356 135.102 16.4205 134.784 16.8409C134.47 17.2576 134.032 17.5833 133.472 17.8182C132.911 18.053 132.267 18.1705 131.54 18.1705C130.472 18.1705 129.612 17.947 128.96 17.5C128.309 17.0492 127.92 16.4223 127.795 15.6193L129.801 15.4261C129.892 15.8201 130.085 16.1174 130.381 16.3182C130.676 16.5189 131.061 16.6193 131.534 16.6193C132.023 16.6193 132.415 16.5189 132.71 16.3182C133.009 16.1174 133.159 15.8693 133.159 15.5739C133.159 15.3239 133.063 15.1174 132.869 14.9545C132.68 14.7917 132.384 14.6667 131.983 14.5795L130.494 14.267C129.657 14.0928 129.038 13.7992 128.636 13.3864C128.235 12.9697 128.036 12.4432 128.04 11.8068C128.036 11.2689 128.182 10.803 128.477 10.4091C128.777 10.0114 129.191 9.70455 129.722 9.48864C130.256 9.26894 130.871 9.15909 131.568 9.15909C132.591 9.15909 133.396 9.37689 133.983 9.8125C134.574 10.2481 134.939 10.8371 135.08 11.5795Z" fill="#00291D" fill-opacity="0.9"/>
</svg>
