<svg width="22" height="20" viewBox="0 0 22 20" fill="none" xmlns="http://www.w3.org/2000/svg">
<path d="M6.56328 9.34378C6.6308 9.27205 6.71179 9.21433 6.80162 9.17391C6.89146 9.13349 6.98837 9.11116 7.08683 9.1082C7.1853 9.10524 7.28338 9.12171 7.37548 9.15666C7.46757 9.19161 7.55188 9.24436 7.62359 9.3119C11.075 12.5632 14.5381 14.5413 18.6134 15.5496C19.1633 14.0496 19.212 12.3986 18.7372 10.788C18.1072 8.65097 16.64 6.78909 14.4955 5.40393C12.5811 4.16737 10.6677 3.84534 8.81656 3.53409C6.48125 3.14128 4.27531 2.77003 2.17016 0.541122C1.93578 0.294559 1.61656 0.195653 1.31141 0.275809C0.962655 0.369559 0.728749 0.645184 0.616718 1.10081C0.354218 2.16722 0.522968 5.15597 1.26125 8.31112C2.44672 13.3802 4.33859 15.9452 5.71719 17.2047C7.49844 18.8308 9.82437 19.7313 12.1358 19.7313C12.5715 19.732 13.0066 19.7 13.4375 19.6357C15.3927 19.3394 17.0202 18.3574 17.9375 16.9286C13.7427 15.8374 10.1591 13.7622 6.59375 10.4055C6.52191 10.3379 6.46413 10.2567 6.4237 10.1667C6.38328 10.0767 6.36102 9.97959 6.35819 9.88096C6.35536 9.78233 6.37201 9.68411 6.40721 9.59193C6.4424 9.49975 6.49544 9.41542 6.56328 9.34378ZM20.9108 16.0089C20.1219 15.8875 19.3578 15.7352 18.6139 15.551C18.461 15.9685 18.2707 16.3714 18.0453 16.7547C18.0111 16.8133 17.975 16.8714 17.938 16.9286C18.8428 17.1628 19.759 17.3506 20.683 17.4911C20.7813 17.5084 20.8821 17.5059 20.9794 17.4837C21.0767 17.4615 21.1687 17.4201 21.2498 17.362C21.3309 17.3038 21.3996 17.23 21.4519 17.145C21.5041 17.0599 21.5389 16.9653 21.5541 16.8666C21.5693 16.7679 21.5646 16.6672 21.5404 16.5704C21.5161 16.4736 21.4728 16.3825 21.4129 16.3026C21.3531 16.2228 21.2779 16.1556 21.1917 16.1052C21.1056 16.0548 21.0102 16.022 20.9112 16.0089H20.9108Z" fill="#067A57"/>
</svg>
