<svg width="20" height="19" viewBox="0 0 20 19" fill="none" xmlns="http://www.w3.org/2000/svg">
<path d="M6.86918 6.1166L1.55252 6.88744L1.45835 6.9066C1.3158 6.94445 1.18585 7.01944 1.08176 7.12394C0.977676 7.22843 0.903188 7.35868 0.865904 7.50137C0.828619 7.64407 0.829875 7.79411 0.869542 7.93616C0.909208 8.07822 0.985866 8.2072 1.09169 8.30994L4.94335 12.0591L4.03502 17.3549L4.02418 17.4466C4.01546 17.594 4.04607 17.7411 4.11289 17.8729C4.17971 18.0046 4.28034 18.1162 4.40446 18.1962C4.52859 18.2762 4.67176 18.3218 4.81931 18.3284C4.96686 18.3349 5.11349 18.3021 5.24418 18.2333L9.99918 15.7333L14.7434 18.2333L14.8267 18.2716C14.9642 18.3258 15.1137 18.3424 15.2598 18.3197C15.4059 18.2971 15.5433 18.236 15.658 18.1427C15.7727 18.0494 15.8605 17.9272 15.9124 17.7888C15.9643 17.6504 15.9784 17.5006 15.9533 17.3549L15.0442 12.0591L18.8975 8.3091L18.9625 8.23827C19.0554 8.12391 19.1162 7.98698 19.139 7.84143C19.1617 7.69588 19.1454 7.54692 19.0918 7.40971C19.0381 7.2725 18.9491 7.15196 18.8338 7.06036C18.7184 6.96876 18.5808 6.90938 18.435 6.88827L13.1184 6.1166L10.7417 1.29994C10.6729 1.16038 10.5664 1.04286 10.4343 0.960689C10.3022 0.878514 10.1498 0.834961 9.99418 0.834961C9.83861 0.834961 9.68613 0.878514 9.55403 0.960689C9.42192 1.04286 9.31546 1.16038 9.24668 1.29994L6.86918 6.1166Z" fill="#003324" fill-opacity="0.65"/>
</svg>
