<svg width="24" height="24" viewBox="0 0 24 24" fill="none" xmlns="http://www.w3.org/2000/svg">
<path d="M7.56325 11.3438C7.63077 11.272 7.71176 11.2143 7.80159 11.1739C7.89143 11.1335 7.98834 11.1111 8.0868 11.1082C8.18527 11.1052 8.28335 11.1217 8.37544 11.1566C8.46754 11.1916 8.55185 11.2443 8.62356 11.3119C12.075 14.5631 15.5381 16.5413 19.6134 17.5495C20.1632 16.0495 20.212 14.3986 19.7372 12.788C19.1072 10.6509 17.64 8.78906 15.4954 7.40391C13.5811 6.16734 11.6676 5.84531 9.81653 5.53406C7.48122 5.14125 5.27528 4.77 3.17012 2.54109C2.93575 2.29453 2.61653 2.19563 2.31137 2.27578C1.96262 2.36953 1.72872 2.64516 1.61669 3.10078C1.35419 4.16719 1.52294 7.15594 2.26122 10.3111C3.44669 15.3802 5.33856 17.9452 6.71716 19.2047C8.49841 20.8308 10.8243 21.7313 13.1357 21.7313C13.5714 21.7319 14.0066 21.7 14.4375 21.6356C16.3926 21.3394 18.0201 20.3573 18.9375 18.9286C14.7426 17.8373 11.159 15.7622 7.59372 12.4055C7.52188 12.3378 7.46409 12.2567 7.42367 12.1667C7.38325 12.0767 7.36099 11.9796 7.35816 11.8809C7.35533 11.7823 7.37198 11.6841 7.40718 11.5919C7.44237 11.4997 7.49541 11.4154 7.56325 11.3438ZM21.9107 18.0089C21.1218 17.8875 20.3578 17.7352 19.6139 17.5509C19.4609 17.9685 19.2706 18.3714 19.0453 18.7547C19.0111 18.8133 18.975 18.8714 18.9379 18.9286C19.8427 19.1628 20.7589 19.3506 21.6829 19.4911C21.7813 19.5084 21.882 19.5059 21.9794 19.4837C22.0767 19.4615 22.1686 19.4201 22.2498 19.362C22.3309 19.3038 22.3996 19.23 22.4518 19.1449C22.5041 19.0599 22.5388 18.9652 22.554 18.8666C22.5692 18.7679 22.5646 18.6672 22.5403 18.5704C22.5161 18.4735 22.4728 18.3825 22.4129 18.3026C22.353 18.2227 22.2778 18.1556 22.1917 18.1052C22.1055 18.0547 22.0102 18.022 21.9112 18.0089H21.9107Z" fill="#067A57"/>
</svg>
