<svg width="24" height="24" viewBox="0 0 24 24" fill="none" xmlns="http://www.w3.org/2000/svg">
<path d="M9.14941 5.91211C9.19597 5.90943 9.22779 5.93635 9.2373 5.95801L9.24609 5.97754L9.25488 5.99609C9.25672 5.99984 9.25682 6.00419 9.25781 6.00781L9.5332 10.0908L9.6709 12.1709V12.1699C9.67835 12.4643 9.72659 12.7561 9.81543 13.0371L9.8291 13.0811L9.84668 13.124C10.1789 13.9132 10.97 14.4002 11.8145 14.3662L11.8271 14.3652L11.8389 14.3643L18.4531 13.9316C18.4797 13.9325 18.5022 13.9425 18.5166 13.9561C18.5254 13.9644 18.5285 13.9745 18.5312 13.9824C18.2577 17.31 15.8001 20.0957 12.4414 20.8203C9.16113 21.528 5.81115 20.099 4.09375 17.3184L3.93262 17.0449C3.45684 16.1903 3.15965 15.2521 3.05859 14.2852L3.05664 14.2637L3.05371 14.2432L3.02734 14.0381C3.01291 13.9014 3.00415 13.7643 3.00098 13.627V13.4014C2.99576 9.81135 5.5449 6.68464 9.14941 5.91211Z" stroke="currentColor" stroke-width="2"/>
<path d="M13.0405 3.00977C16.966 3.19725 20.2307 5.99236 20.9692 9.74316L20.9702 9.79395L13.5287 10.2754L13.0405 3.00977Z" stroke="currentColor" stroke-width="2"/>
</svg>
