<svg width="18" height="18" viewBox="0 0 18 18" fill="none" xmlns="http://www.w3.org/2000/svg">
<path d="M6 12L12 6M8 2.99994L8.463 2.46394C9.40081 1.52627 10.6727 0.99954 11.9989 0.999634C13.325 0.999728 14.5968 1.52663 15.5345 2.46444C16.4722 3.40224 16.9989 4.67413 16.9988 6.00029C16.9987 7.32646 16.4718 8.59827 15.534 9.53594L15 9.99994M10.0001 15L9.60314 15.534C8.65439 16.4722 7.37393 16.9984 6.03964 16.9984C4.70535 16.9984 3.42489 16.4722 2.47614 15.534C2.0085 15.0716 1.63724 14.521 1.38385 13.9141C1.13047 13.3073 1 12.6561 1 11.9985C1 11.3408 1.13047 10.6897 1.38385 10.0829C1.63724 9.47598 2.0085 8.9254 2.47614 8.463L3.00014 8" stroke="#004D36" stroke-opacity="0.45" stroke-width="2" stroke-linecap="round" stroke-linejoin="round"/>
</svg>
