<!-- Generated by IcoMoon.io -->
<svg version="1.1" xmlns="http://www.w3.org/2000/svg" width="1024" height="1024" viewBox="0 0 1024 1024">
<g id="icomoon-ignore">
</g>
<path fill="none" stroke-linejoin="round" stroke-linecap="round" stroke-miterlimit="4" stroke-width="85.3333" stroke="currentColor" d="M469.333 768l-85.333-42.667M384 725.333l-256 128v-554.667l256-128M384 725.333v-554.667M384 170.667l256 128M640 298.667l256-128v320M640 298.667v213.333M861.875 861.875l76.8 76.8M640 768c0 33.946 13.487 66.505 37.491 90.509s56.563 37.491 90.509 37.491c33.946 0 66.505-13.487 90.509-37.491s37.491-56.563 37.491-90.509c0-33.946-13.487-66.505-37.491-90.509s-56.563-37.491-90.509-37.491c-33.946 0-66.505 13.487-90.509 37.491s-37.491 56.563-37.491 90.509z"></path>
</svg>
