<!-- Generated by IcoMoon.io -->
<svg version="1.1" xmlns="http://www.w3.org/2000/svg" width="1024" height="1024" viewBox="0 0 1024 1024">
<g id="icomoon-ignore">
</g>
<path fill="none" stroke-linejoin="round" stroke-linecap="round" stroke-miterlimit="4" stroke-width="85.3333" stroke="currentColor" d="M469.333 810.667h234.667c39.607 0 77.589-15.731 105.596-43.738s43.738-65.988 43.738-105.596c0-39.607-15.731-77.589-43.738-105.596s-65.988-43.738-105.596-43.738h-341.333c-39.606 0-77.589-15.731-105.594-43.738s-43.739-65.99-43.739-105.596c0-39.606 15.733-77.589 43.739-105.594s65.989-43.739 105.594-43.739h192M128 810.667c0 22.63 8.99 44.335 24.994 60.339s37.708 24.994 60.34 24.994c22.632 0 44.337-8.99 60.34-24.994s24.994-37.709 24.994-60.339c0-22.63-8.99-44.335-24.994-60.339s-37.708-24.994-60.34-24.994c-22.632 0-44.337 8.99-60.34 24.994s-24.994 37.709-24.994 60.339zM810.667 298.667c22.63 0 44.335-8.99 60.339-24.994s24.994-37.708 24.994-60.34c0-22.632-8.99-44.337-24.994-60.34s-37.709-24.994-60.339-24.994c-22.63 0-44.335 8.99-60.339 24.994s-24.994 37.708-24.994 60.34c0 22.632 8.99 44.337 24.994 60.34s37.709 24.994 60.339 24.994z"></path>
</svg>
