<svg width="24" height="24" viewBox="0 0 24 24" fill="none" xmlns="http://www.w3.org/2000/svg">
<path d="M20.178 12.9251L18.8976 11.2236C18.9062 11.0689 18.8976 10.9056 18.8976 10.7853L20.178 9.07515C20.2417 8.99192 20.285 8.89493 20.3044 8.79195C20.3238 8.68897 20.3188 8.58287 20.2897 8.48218C20.0732 7.68989 19.7585 6.92774 19.353 6.21343C19.3007 6.12269 19.2288 6.04476 19.1426 5.9853C19.0564 5.92583 18.958 5.88634 18.8546 5.86968L16.7491 5.5689L16.4312 5.25093L16.1304 3.14546C16.1137 3.04206 16.0742 2.94366 16.0148 2.85744C15.9553 2.77122 15.8774 2.69934 15.7866 2.64702C15.0723 2.24156 14.3102 1.92689 13.5179 1.71031C13.4172 1.68128 13.3111 1.67627 13.2081 1.69567C13.1051 1.71507 13.0081 1.75835 12.9249 1.82203L11.2233 3.0939H10.7765L9.07491 1.82203C8.99168 1.75835 8.89468 1.71507 8.7917 1.69567C8.68872 1.67627 8.58263 1.68128 8.48194 1.71031C7.68964 1.92689 6.9275 2.24156 6.21319 2.64702C6.12245 2.69934 6.04451 2.77122 5.98505 2.85744C5.92559 2.94366 5.88609 3.04206 5.86944 3.14546L5.56866 5.25093L5.25069 5.5689L3.14522 5.86968C3.04181 5.88634 2.94342 5.92583 2.8572 5.9853C2.77098 6.04476 2.69909 6.12269 2.64678 6.21343C2.24132 6.92774 1.92664 7.68989 1.71006 8.48218C1.68104 8.58287 1.67603 8.68897 1.69543 8.79195C1.71483 8.89493 1.75811 8.99192 1.82178 9.07515L3.10225 10.7767V11.215L1.82178 12.9251C1.75811 13.0084 1.71483 13.1054 1.69543 13.2084C1.67603 13.3113 1.68104 13.4174 1.71006 13.5181C1.92664 14.3104 2.24132 15.0726 2.64678 15.7869C2.69909 15.8776 2.77098 15.9555 2.8572 16.015C2.94342 16.0745 3.04181 16.114 3.14522 16.1306L5.25069 16.4314L5.56866 16.7494L5.86944 18.8548C5.88609 18.9582 5.92559 19.0566 5.98505 19.1429C6.04451 19.2291 6.12245 19.301 6.21319 19.3533C6.9275 19.7587 7.68964 20.0734 8.48194 20.29C8.54059 20.307 8.60134 20.3157 8.66241 20.3158C8.81147 20.3177 8.95682 20.2693 9.07491 20.1783L10.7765 18.9064H11.2233L12.9249 20.1783C13.0081 20.242 13.1051 20.2852 13.2081 20.3046C13.3111 20.324 13.4172 20.319 13.5179 20.29C14.3102 20.0734 15.0723 19.7587 15.7866 19.3533C15.8774 19.301 15.9553 19.2291 16.0148 19.1429C16.0742 19.0566 16.1137 18.9582 16.1304 18.8548L16.4312 16.7408C16.5343 16.6376 16.6546 16.5259 16.7405 16.4314L18.8546 16.1306C18.958 16.114 19.0564 16.0745 19.1426 16.015C19.2288 15.9555 19.3007 15.8776 19.353 15.7869C19.7585 15.0726 20.0732 14.3104 20.2897 13.5181C20.3188 13.4174 20.3238 13.3113 20.3044 13.2084C20.285 13.1054 20.2417 13.0084 20.178 12.9251ZM10.9999 14.7814C10.252 14.7814 9.52098 14.5596 8.89916 14.1441C8.27733 13.7287 7.79268 13.1381 7.50649 12.4472C7.22029 11.7562 7.14541 10.996 7.29131 10.2625C7.43721 9.52897 7.79734 8.85522 8.32616 8.3264C8.85498 7.79758 9.52873 7.43746 10.2622 7.29156C10.9957 7.14566 11.756 7.22054 12.4469 7.50673C13.1379 7.79292 13.7284 8.27758 14.1439 8.8994C14.5594 9.52122 14.7812 10.2523 14.7812 11.0001C14.7812 12.003 14.3828 12.9648 13.6737 13.6739C12.9645 14.383 12.0028 14.7814 10.9999 14.7814Z" fill="currentColor"/>
</svg>
