<!-- Generated by IcoMoon.io -->
<svg version="1.1" xmlns="http://www.w3.org/2000/svg" width="1024" height="1024" viewBox="0 0 1024 1024">
<g id="icomoon-ignore">
</g>
<path fill="none" stroke-linejoin="round" stroke-linecap="round" stroke-miterlimit="4" stroke-width="85.3333" stroke="currentColor" d="M277.333 320c0 11.316 4.495 22.168 12.497 30.17s18.854 12.497 30.17 12.497c11.316 0 22.168-4.495 30.17-12.497s12.497-18.854 12.497-30.17c0-11.316-4.495-22.168-12.497-30.17s-18.854-12.497-30.17-12.497c-11.316 0-22.168 4.495-30.17 12.497s-12.497 18.854-12.497 30.17z"></path>
<path fill="none" stroke-linejoin="round" stroke-linecap="round" stroke-miterlimit="4" stroke-width="85.3333" stroke="currentColor" d="M128 256v220.672c0.005 22.63 8.998 44.331 25.003 60.331l328.96 328.96c19.285 19.281 45.436 30.11 72.704 30.11s53.419-10.829 72.704-30.11l238.592-238.592c19.281-19.285 30.11-45.436 30.11-72.704s-10.829-53.419-30.11-72.704l-328.96-328.96c-16-16.004-37.7-24.998-60.331-25.003h-220.672c-33.948 0-66.505 13.486-90.51 37.49s-37.49 56.562-37.49 90.51z"></path>
</svg>
