<!-- Generated by IcoMoon.io -->
<svg version="1.1" xmlns="http://www.w3.org/2000/svg" width="1024" height="1024" viewBox="0 0 1024 1024">
<g id="icomoon-ignore">
</g>
<path fill="none" stroke-linejoin="round" stroke-linecap="round" stroke-miterlimit="4" stroke-width="85.3333" stroke="currentColor" d="M256 896v-85.333c0-45.265 17.981-88.674 49.987-120.678 32.006-32.009 75.416-49.988 120.68-49.988h170.667c45.265 0 88.674 17.98 120.678 49.988 32.009 32.004 49.988 75.413 49.988 120.678v85.333M341.333 298.667c0 45.264 17.981 88.673 49.987 120.68s75.415 49.987 120.68 49.987c45.265 0 88.674-17.98 120.678-49.987 32.009-32.006 49.988-75.416 49.988-120.68s-17.98-88.673-49.988-120.68c-32.004-32.006-75.413-49.987-120.678-49.987s-88.673 17.981-120.68 49.987c-32.006 32.006-49.987 75.416-49.987 120.68z"></path>
</svg>
